<svg xmlns="http://www.w3.org/2000/svg" xmlns:xlink="http://www.w3.org/1999/xlink" viewBox="0 0 250 100">
  <defs>
    <style>
      .cls-1 {
        clip-path: url(#clip-CityWalk);
      }

      .cls-2 {
        fill: #fff;
      }
    </style>
    <clipPath id="clip-CityWalk">
      <rect width="250" height="100"/>
    </clipPath>
  </defs>
  <g id="CityWalk" class="cls-1">
    <rect class="cls-2" width="250" height="100"/>
    <path id="CityWalk_English_Logo_Black_RGB" d="M212.6,296.006V228.977h9.264v67.028Zm16.379-74.144H296V212.6H228.975Zm74.144,7.116v67.028h9.264V228.977ZM296,303.121H228.975v9.264H296Zm.332-29.7-4.547-7.729-36.36,10.389,33.258-33.258-4.547-7.729-36.36,10.388,10.309-10.309-6.55-6.55L228.59,251.574l4.547,7.729,36.36-10.388L236.24,282.173l4.547,7.728,36.36-10.389-10.309,10.309,6.55,6.55Zm56.554-25.311a7.854,7.854,0,0,1-2.317,3.969,6.2,6.2,0,0,1-4.033,1.223,5.944,5.944,0,0,1-5.063-2.274q-1.717-2.274-1.716-6.779,0-4.418,1.694-6.693a6.548,6.548,0,0,1,8.71-1.094,8.923,8.923,0,0,1,2.51,3.8l7.465-3.046a12.12,12.12,0,0,0-4.848-6.629,15.108,15.108,0,0,0-8.667-2.381q-7.295,0-11.434,4.333t-4.14,11.885q0,7.552,4.055,11.756t11.348,4.2a15.36,15.36,0,0,0,9.139-2.6,12.975,12.975,0,0,0,4.977-7.358Zm11.369,11.5H372.5V228.977H364.26Zm21.194,0h8.238v-23.64h9.568v-6.994H375.886v6.994h9.568Zm30.591,0h8.238V247.769l10.94-18.792h-8.666l-6.393,11.971-6.221-11.971h-8.925l11.027,18.792v11.842ZM358.21,296.006h8.409l8.452-30.634h-8.5l-4.419,20.379-4.891-20.165h-7.637l-4.977,20.251-4.419-20.466h-8.753l8.624,30.634h8.409l4.848-19.736Zm37.369,0h8.538l-11.284-30.634H383.18l-11.327,30.634h8.281l1.887-5.835h11.67Zm-7.723-23.64,3.647,11.155H384.21Zm19.478,23.64h22.611v-6.993H415.573v-23.64h-8.238v30.634Zm46.036,0H462.6l-11.584-18.964,10.511-11.67h-9.4l-10.34,11.5v-11.5H433.55v30.634h8.238v-9.525l3.646-3.819Z" transform="translate(-212.596 -212.598)"/>
  </g>
</svg>
