<?xml version="1.0" encoding="utf-8"?>
<!-- Generator: Adobe Illustrator 28.0.0, SVG Export Plug-In . SVG Version: 6.00 Build 0)  -->
<svg version="1.1" id="Layer_1" xmlns="http://www.w3.org/2000/svg" xmlns:xlink="http://www.w3.org/1999/xlink" x="0px" y="0px"
	 viewBox="0 0 500 500" style="enable-background:new 0 0 500 500;" xml:space="preserve">
<style type="text/css">
	.st0{fill:none;stroke:#FFE8D6;stroke-width:15;stroke-miterlimit:10;}
	.st1{fill:#FFE8D6;stroke:#FFE8D6;stroke-width:10.5;stroke-linecap:round;stroke-linejoin:round;stroke-miterlimit:10;}
	.st2{fill:#FFE8D6;stroke:#4753A4;stroke-width:10.5;stroke-linecap:round;stroke-linejoin:round;stroke-miterlimit:10;}
	.st3{fill:#FFE8D6;stroke:#4753A4;stroke-width:9;stroke-linecap:round;stroke-linejoin:round;stroke-miterlimit:10;}
</style>
<g>
	<g>
		<circle class="st0" cx="250" cy="250" r="225"/>
	</g>
	<g>
		<g>
			<polygon class="st1" points="376.1,379.4 125,379.4 125.8,254.7 106.4,253.4 106.9,199.5 248.9,96.5 394.2,198.9 393.7,252.8 
				376.8,253.4 			"/>
			<polyline class="st1" points="303.1,132.2 303.1,101.1 365.1,101.1 365.1,175.6 			"/>
		</g>
		<g>
			<polygon class="st2" points="362.6,365.1 138.6,365.1 138.6,239.4 120.2,238.7 120.2,206.7 250,112.3 379.8,206.7 379.8,238.7 
				362.6,239.6 			"/>
			<polyline class="st2" points="315.5,142.2 315.5,116.9 353.7,116.9 353.7,168 			"/>
		</g>
		<rect x="176.4" y="218.4" class="st3" width="70.1" height="145.8"/>
		<rect x="281.1" y="217.9" class="st3" width="50.9" height="54.3"/>
	</g>
</g>
</svg>
