<?xml version="1.0" encoding="utf-8"?>
<!-- Generator: Adobe Illustrator 27.9.0, SVG Export Plug-In . SVG Version: 6.00 Build 0)  -->
<svg version="1.1" id="Layer_1" xmlns="http://www.w3.org/2000/svg" xmlns:xlink="http://www.w3.org/1999/xlink" x="0px" y="0px"
	 viewBox="0 0 72 72" style="enable-background:new 0 0 72 72;" xml:space="preserve">
<style type="text/css">
	.st0{fill:none;stroke:#37B9A0;stroke-width:1.8;stroke-miterlimit:10;}
	.st1{fill:#37B9A0;}
</style>
<circle class="st0" cx="36.05" cy="36" r="32.05"/>
<g>
	<path class="st1" d="M55.05,41.35c-1.25-3.5-3.74-5.51-7.43-6.01c-0.06-0.01-0.12-0.04-0.18-0.06h-1.49
		c-0.77,0.18-1.57,0.28-2.3,0.56c-3.22,1.25-5.15,3.62-5.68,7.03c-0.74,4.8,2.65,9.25,7.48,9.96c4.69,0.69,9.14-2.57,9.91-7.27
		c0.04-0.27,0.09-0.53,0.14-0.8v-1.33C55.36,42.73,55.28,42.01,55.05,41.35z M47.38,50.59c-0.59,0.25-1.17,0.17-1.7-0.15
		c-0.37-0.23-0.5-0.58-0.5-0.96c-0.01-1.89-0.01-3.79,0-5.68c0.01-0.77,0.69-1.31,1.58-1.3c0.82,0.01,1.45,0.58,1.45,1.33
		c0,0.94,0,1.87,0,2.81c0,0,0,0,0,0c0,0.91,0,1.83,0,2.74C48.23,49.93,47.95,50.34,47.38,50.59z M46.7,40.71
		c-0.91,0-1.64-0.73-1.64-1.64c0-0.9,0.72-1.61,1.62-1.61c0.93,0,1.63,0.7,1.63,1.63C48.32,39.99,47.6,40.71,46.7,40.71z"/>
	<g id="VVy0kA_00000066496211555202911090000003463052946862489482_">
		<g>
			<path class="st1" d="M36.67,33.19c-5.19,0-9.38-4.13-9.4-9.26c-0.01-5.21,4.2-9.36,9.49-9.33c5.17,0.03,9.37,4.23,9.34,9.34
				C46.06,29.06,41.86,33.19,36.67,33.19z"/>
			<path class="st1" d="M36.5,36.75c-3.71,4.88-3.8,9.61-0.13,14.59c-0.9,0-1.57,0-2.24,0c-4.7,0-9.4,0.01-14.11,0
				c-2.39-0.01-3.25-1.02-3.48-3.37c-0.43-4.3,1.73-6.93,5.33-8.7C26.4,37.03,31.24,36.49,36.5,36.75z"/>
		</g>
	</g>
</g>
</svg>
